<?xml version="1.0" encoding="UTF-8"?>
<svg version="1.1" xmlns="http://www.w3.org/2000/svg" width="1024" height="1024">
<path d="M0 0 C337.92 0 675.84 0 1024 0 C1024 337.92 1024 675.84 1024 1024 C686.08 1024 348.16 1024 0 1024 C0 686.08 0 348.16 0 0 Z " fill="#11222A" transform="translate(0,0)"/>
<path d="M0 0 C0.75647827 -0.00067474 1.51295654 -0.00134949 2.2923584 -0.00204468 C24.73263755 0.02954056 46.67717371 2.06789545 68.453125 7.68310547 C71.53644348 8.46538972 74.64212431 9.13542708 77.75 9.8125 C107.75501397 16.80585612 139.11096096 31.62492251 163.6875 50.25 C165.10675781 51.29220703 165.10675781 51.29220703 166.5546875 52.35546875 C186.80485275 67.32410235 206.29773006 84.20279968 221.6875 104.25 C222.52492881 105.30947433 223.36352584 106.36802603 224.203125 107.42578125 C231.3411331 116.47990759 237.42194057 126.03131948 243.296875 135.94140625 C244.50874348 137.9532441 245.77395533 139.91211695 247.0625 141.875 C253.43149832 152.07358895 258.19823943 163.02030622 262.25 174.3046875 C264.0651185 179.35859573 266.13321592 184.30453178 268.1953125 189.26171875 C271.99162156 199.03396679 274.43779944 209.0067534 276.25 219.3125 C276.54293945 220.90481445 276.54293945 220.90481445 276.84179688 222.52929688 C277.48668624 226.09824489 278.08651477 229.673405 278.6875 233.25 C278.81738312 233.96039429 278.94726624 234.67078857 279.08108521 235.40270996 C281.53382077 248.8346232 282.1283044 261.93018805 282.02368164 275.57177734 C281.99977657 278.90616529 282.00318927 282.2397649 282.00976562 285.57421875 C282.00419601 287.72917137 281.99709066 289.88412069 281.98828125 292.0390625 C281.98919266 293.01839752 281.99010406 293.99773254 281.99104309 295.00674438 C281.92674473 301.31871716 281.06210436 307.10141507 279.6875 313.25 C279.37073285 315.18454759 279.0691293 317.12173954 278.79296875 319.0625 C277.02504297 331.03081014 274.91182785 342.6249062 271.32104492 354.18725586 C270.87592925 355.63649759 270.44787973 357.09103767 270.0324707 358.54907227 C268.09019595 365.30764983 265.63211064 371.79470075 263 378.3125 C262.55720703 379.41013672 262.11441406 380.50777344 261.65820312 381.63867188 C252.94234324 403.04582701 242.20783625 422.49022336 228.6875 441.25 C228.07720947 442.10005615 228.07720947 442.10005615 227.45458984 442.96728516 C221.47993332 451.21147964 214.81348293 458.58993428 207.7890625 465.9375 C205.25876074 468.59407111 202.97905175 471.38432297 200.6875 474.25 C199.53283231 475.34809154 198.34500369 476.4124861 197.125 477.4375 C194.84146596 479.37995974 192.60167674 481.33137646 190.42578125 483.39453125 C165.19222257 507.28124378 133.93100169 524.73482245 101.6875 537.25 C100.86548096 537.57589111 100.04346191 537.90178223 99.1965332 538.23754883 C90.09616728 541.81258721 80.55050506 544.09597213 71.11254883 546.59301758 C69.1053293 547.13680372 67.11109635 547.72827362 65.12109375 548.33203125 C60.78110852 549.49232309 56.44228201 550.17143297 52 550.8125 C51.12093994 550.94253418 50.24187988 551.07256836 49.33618164 551.20654297 C43.5360948 552.04342711 37.75441891 552.68642669 31.90234375 553.0390625 C29.51460998 553.18270806 29.51460998 553.18270806 26.6875 554.25 C25.20978915 554.34128131 23.72832946 554.37789732 22.24780273 554.37939453 C20.90642494 554.38412277 20.90642494 554.38412277 19.53794861 554.38894653 C18.57538651 554.3869223 17.6128244 554.38489807 16.62109375 554.3828125 C15.63125992 554.38376923 14.64142609 554.38472595 13.62159729 554.38571167 C11.52938778 554.38639219 9.43717616 554.38454683 7.3449707 554.38037109 C4.13422939 554.3750154 0.92362761 554.38032335 -2.28710938 554.38671875 C-4.31770864 554.38605806 -6.34830782 554.38477708 -8.37890625 554.3828125 C-9.34349258 554.38483673 -10.30807892 554.38686096 -11.30189514 554.38894653 C-12.19299484 554.38579437 -13.08409454 554.38264221 -14.00219727 554.37939453 C-14.78812759 554.37859894 -15.57405792 554.37780334 -16.38380432 554.37698364 C-18.3125 554.25 -18.3125 554.25 -20.3125 553.25 C-23.22914834 552.92527195 -26.14034591 552.63898381 -29.0625 552.375 C-36.10744379 551.69072875 -42.85785434 550.683709 -49.74609375 549.03125 C-52.79469115 548.3634302 -55.78636175 547.88535937 -58.87109375 547.43359375 C-65.8288393 546.29708463 -72.29607793 544.13250015 -78.9375 541.8125 C-81.24171194 541.02075005 -83.54639251 540.23036249 -85.8515625 539.44140625 C-87.49016235 538.87703857 -87.49016235 538.87703857 -89.16186523 538.30126953 C-92.84107221 537.07363178 -96.54728784 535.97935859 -100.28393555 534.94116211 C-103.32239328 533.90591433 -105.7110802 532.09989853 -108.3125 530.25 C-110.00147189 529.51235899 -111.69174493 528.7773431 -113.39233398 528.06689453 C-151.3007107 511.93956732 -187.48397037 482.97627265 -212.3125 450.25 C-213.03308594 449.32316406 -213.75367188 448.39632813 -214.49609375 447.44140625 C-241.5086923 412.18926291 -259.93621932 371.64372626 -267.84326172 327.81787109 C-268.16780498 326.04183255 -268.50908799 324.2688013 -268.86376953 322.49853516 C-271.99716258 306.67794622 -272.6681392 291.2658132 -272.625 275.1875 C-272.62254272 274.21369385 -272.62008545 273.2398877 -272.61755371 272.23657227 C-272.60500094 269.45830324 -272.58145351 266.68046767 -272.55078125 263.90234375 C-272.54321304 263.05776108 -272.53564484 262.21317841 -272.52784729 261.34300232 C-272.43221781 255.48943563 -272.43221781 255.48943563 -271.3125 253.25 C-271.13509111 251.58492139 -270.9634467 249.91904387 -270.81958008 248.25073242 C-268.58368642 223.10604624 -262.69801678 198.92652145 -253.23974609 175.56616211 C-252.31766081 173.26289116 -251.43692497 170.94671308 -250.5625 168.625 C-247.62400766 161.27876915 -243.94117851 154.27318925 -240.3125 147.25 C-239.57 145.80947266 -239.57 145.80947266 -238.8125 144.33984375 C-222.44383084 113.50908337 -198.89600525 84.71809246 -171.3125 63.25 C-170.55324219 62.62351562 -169.79398437 61.99703125 -169.01171875 61.3515625 C-156.93898168 51.40930844 -144.0920813 42.63839392 -130.3125 35.25 C-129.58804688 34.85570801 -128.86359375 34.46141602 -128.1171875 34.05517578 C-122.55894672 31.03323091 -116.96147531 28.09879478 -111.3125 25.25 C-110.67183594 24.92644531 -110.03117188 24.60289062 -109.37109375 24.26953125 C-82.74690855 11.10119775 -51.21433072 3.92068358 -21.7421875 1.57421875 C-5.13266724 0.00407048 -5.13266724 0.00407048 0 0 Z " fill="#112D33" transform="translate(507.3125,234.75)"/>
<path d="M0 0 C0.75647827 -0.00067474 1.51295654 -0.00134949 2.2923584 -0.00204468 C24.73263755 0.02954056 46.67717371 2.06789545 68.453125 7.68310547 C71.53644348 8.46538972 74.64212431 9.13542708 77.75 9.8125 C107.75501397 16.80585612 139.11096096 31.62492251 163.6875 50.25 C165.10675781 51.29220703 165.10675781 51.29220703 166.5546875 52.35546875 C186.80485275 67.32410235 206.29773006 84.20279968 221.6875 104.25 C222.52492881 105.30947433 223.36352584 106.36802603 224.203125 107.42578125 C231.3411331 116.47990759 237.42194057 126.03131948 243.296875 135.94140625 C244.50874348 137.9532441 245.77395533 139.91211695 247.0625 141.875 C253.43149832 152.07358895 258.19823943 163.02030622 262.25 174.3046875 C264.0651185 179.35859573 266.13321592 184.30453178 268.1953125 189.26171875 C271.99162156 199.03396679 274.43779944 209.0067534 276.25 219.3125 C276.54293945 220.90481445 276.54293945 220.90481445 276.84179688 222.52929688 C277.48668624 226.09824489 278.08651477 229.673405 278.6875 233.25 C278.81738312 233.96039429 278.94726624 234.67078857 279.08108521 235.40270996 C281.53382077 248.8346232 282.1283044 261.93018805 282.02368164 275.57177734 C281.99977657 278.90616529 282.00318927 282.2397649 282.00976562 285.57421875 C282.00419601 287.72917137 281.99709066 289.88412069 281.98828125 292.0390625 C281.98919266 293.01839752 281.99010406 293.99773254 281.99104309 295.00674438 C281.92674473 301.31871716 281.06210436 307.10141507 279.6875 313.25 C279.37073285 315.18454759 279.0691293 317.12173954 278.79296875 319.0625 C277.02504297 331.03081014 274.91182785 342.6249062 271.32104492 354.18725586 C270.87592925 355.63649759 270.44787973 357.09103767 270.0324707 358.54907227 C268.09019595 365.30764983 265.63211064 371.79470075 263 378.3125 C262.55720703 379.41013672 262.11441406 380.50777344 261.65820312 381.63867188 C252.94234324 403.04582701 242.20783625 422.49022336 228.6875 441.25 C228.07720947 442.10005615 228.07720947 442.10005615 227.45458984 442.96728516 C221.47993332 451.21147964 214.81348293 458.58993428 207.7890625 465.9375 C205.25876074 468.59407111 202.97905175 471.38432297 200.6875 474.25 C199.53283231 475.34809154 198.34500369 476.4124861 197.125 477.4375 C194.84146596 479.37995974 192.60167674 481.33137646 190.42578125 483.39453125 C165.19222257 507.28124378 133.93100169 524.73482245 101.6875 537.25 C100.86548096 537.57589111 100.04346191 537.90178223 99.1965332 538.23754883 C90.09616728 541.81258721 80.55050506 544.09597213 71.11254883 546.59301758 C69.1053293 547.13680372 67.11109635 547.72827362 65.12109375 548.33203125 C60.78110852 549.49232309 56.44228201 550.17143297 52 550.8125 C51.12093994 550.94253418 50.24187988 551.07256836 49.33618164 551.20654297 C43.5360948 552.04342711 37.75441891 552.68642669 31.90234375 553.0390625 C29.51460998 553.18270806 29.51460998 553.18270806 26.6875 554.25 C25.20978915 554.34128131 23.72832946 554.37789732 22.24780273 554.37939453 C20.90642494 554.38412277 20.90642494 554.38412277 19.53794861 554.38894653 C18.57538651 554.3869223 17.6128244 554.38489807 16.62109375 554.3828125 C15.63125992 554.38376923 14.64142609 554.38472595 13.62159729 554.38571167 C11.52938778 554.38639219 9.43717616 554.38454683 7.3449707 554.38037109 C4.13422939 554.3750154 0.92362761 554.38032335 -2.28710938 554.38671875 C-4.31770864 554.38605806 -6.34830782 554.38477708 -8.37890625 554.3828125 C-9.34349258 554.38483673 -10.30807892 554.38686096 -11.30189514 554.38894653 C-12.19299484 554.38579437 -13.08409454 554.38264221 -14.00219727 554.37939453 C-14.78812759 554.37859894 -15.57405792 554.37780334 -16.38380432 554.37698364 C-18.3125 554.25 -18.3125 554.25 -20.3125 553.25 C-23.22914834 552.92527195 -26.14034591 552.63898381 -29.0625 552.375 C-36.10744379 551.69072875 -42.85785434 550.683709 -49.74609375 549.03125 C-52.79469115 548.3634302 -55.78636175 547.88535937 -58.87109375 547.43359375 C-65.8288393 546.29708463 -72.29607793 544.13250015 -78.9375 541.8125 C-81.24171194 541.02075005 -83.54639251 540.23036249 -85.8515625 539.44140625 C-87.49016235 538.87703857 -87.49016235 538.87703857 -89.16186523 538.30126953 C-92.84107221 537.07363178 -96.54728784 535.97935859 -100.28393555 534.94116211 C-103.32239328 533.90591433 -105.7110802 532.09989853 -108.3125 530.25 C-110.00147189 529.51235899 -111.69174493 528.7773431 -113.39233398 528.06689453 C-151.3007107 511.93956732 -187.48397037 482.97627265 -212.3125 450.25 C-213.03308594 449.32316406 -213.75367188 448.39632813 -214.49609375 447.44140625 C-241.5086923 412.18926291 -259.93621932 371.64372626 -267.84326172 327.81787109 C-268.16780498 326.04183255 -268.50908799 324.2688013 -268.86376953 322.49853516 C-271.99716258 306.67794622 -272.6681392 291.2658132 -272.625 275.1875 C-272.62254272 274.21369385 -272.62008545 273.2398877 -272.61755371 272.23657227 C-272.60500094 269.45830324 -272.58145351 266.68046767 -272.55078125 263.90234375 C-272.54321304 263.05776108 -272.53564484 262.21317841 -272.52784729 261.34300232 C-272.43221781 255.48943563 -272.43221781 255.48943563 -271.3125 253.25 C-271.13509111 251.58492139 -270.9634467 249.91904387 -270.81958008 248.25073242 C-268.58368642 223.10604624 -262.69801678 198.92652145 -253.23974609 175.56616211 C-252.31766081 173.26289116 -251.43692497 170.94671308 -250.5625 168.625 C-247.62400766 161.27876915 -243.94117851 154.27318925 -240.3125 147.25 C-239.57 145.80947266 -239.57 145.80947266 -238.8125 144.33984375 C-222.44383084 113.50908337 -198.89600525 84.71809246 -171.3125 63.25 C-170.55324219 62.62351562 -169.79398437 61.99703125 -169.01171875 61.3515625 C-156.93898168 51.40930844 -144.0920813 42.63839392 -130.3125 35.25 C-129.58804688 34.85570801 -128.86359375 34.46141602 -128.1171875 34.05517578 C-122.55894672 31.03323091 -116.96147531 28.09879478 -111.3125 25.25 C-110.67183594 24.92644531 -110.03117188 24.60289062 -109.37109375 24.26953125 C-82.74690855 11.10119775 -51.21433072 3.92068358 -21.7421875 1.57421875 C-5.13266724 0.00407048 -5.13266724 0.00407048 0 0 Z M-58.3125 22.25 C-59.24980957 22.47171875 -60.18711914 22.6934375 -61.15283203 22.921875 C-75.47149867 26.37179363 -88.84527827 31.32368853 -102.3125 37.25 C-103.05274414 37.56662598 -103.79298828 37.88325195 -104.55566406 38.20947266 C-124.45758174 46.74084126 -142.51751239 58.67622398 -159.3125 72.25 C-160.3128125 73.03890625 -161.313125 73.8278125 -162.34375 74.640625 C-190.92552906 97.47319563 -212.86774853 125.79075845 -229.8125 158.125 C-230.38798584 159.21731934 -230.96347168 160.30963867 -231.55639648 161.43505859 C-235.03255348 168.21992075 -237.8035824 174.97309979 -240.25195312 182.18505859 C-241.17351273 184.8483319 -242.18917289 187.41718061 -243.3125 190 C-260.05908351 231.3262464 -262.81655522 283.96782854 -253.3125 327.25 C-253.07692383 328.33603516 -252.84134766 329.42207031 -252.59863281 330.54101562 C-247.42747161 353.94305496 -240.43451948 376.1856307 -229.26367188 397.43310547 C-228.3832556 399.11484518 -227.52649421 400.80891147 -226.671875 402.50390625 C-211.25635256 432.39954321 -187.91353873 460.66792192 -161.3125 481.25 C-160.07106818 482.24280673 -158.83022343 483.23634783 -157.58984375 484.23046875 C-136.58286672 500.88517154 -112.91944056 515.0204591 -87.3125 523.25 C-85.9128597 523.76051453 -84.51639457 524.27992212 -83.125 524.8125 C-82.50496094 525.04324219 -81.88492188 525.27398438 -81.24609375 525.51171875 C-79.87587274 526.03489404 -78.51454455 526.58163666 -77.16015625 527.14453125 C-67.23468252 531.08022462 -56.73090879 533.06332689 -46.3125 535.25 C-45.13905029 535.4962915 -45.13905029 535.4962915 -43.94189453 535.74755859 C4.94236163 545.83859563 63.01335649 540.69516669 108.140625 518.95703125 C110.74317606 517.7044819 113.34749433 516.49945119 115.984375 515.32421875 C138.96660264 504.96149086 159.78585104 490.85618067 178.6875 474.25 C179.56148437 473.48816406 180.43546875 472.72632813 181.3359375 471.94140625 C191.32996555 463.09811014 200.46910146 453.76743608 208.6875 443.25 C209.68484772 442.00516978 210.68224677 440.76038069 211.6796875 439.515625 C225.45369001 422.13065678 236.28211985 403.3025962 245.6875 383.25 C246.00299805 382.57888184 246.31849609 381.90776367 246.64355469 381.21630859 C253.02426707 367.45996262 257.40014923 353.16860296 260.875 338.4375 C261.11283203 337.44395508 261.35066406 336.45041016 261.59570312 335.42675781 C265.65085879 317.56476263 267.16328147 300.10441345 267.02368164 281.81005859 C266.99992139 278.48901264 267.00317321 275.16876691 267.00976562 271.84765625 C266.98926479 255.45064991 265.68351665 239.8299182 262.375 223.75 C262.1598877 222.69047119 261.94477539 221.63094238 261.72314453 220.53930664 C251.77578827 172.85773438 227.43877561 130.54918877 194.375 95.1875 C193.72934082 94.49696533 193.08368164 93.80643066 192.41845703 93.0949707 C188.07092213 88.52310077 183.49277511 84.33432462 178.6875 80.25 C177.77226563 79.45335937 176.85703125 78.65671875 175.9140625 77.8359375 C156.372656 61.22867612 134.85536322 48.17924251 111.6875 37.25 C110.88320557 36.86247559 110.07891113 36.47495117 109.25024414 36.07568359 C102.12511895 32.72154303 94.8764547 30.1311325 87.375 27.75 C86.1487793 27.36054199 84.92255859 26.97108398 83.65917969 26.56982422 C72.77670758 23.17665414 61.9035962 20.29319477 50.6875 18.25 C49.80900391 18.08773926 48.93050781 17.92547852 48.02539062 17.75830078 C13.27263271 11.66209832 -24.17679793 14.0587967 -58.3125 22.25 Z " fill="#3CEDDE" transform="translate(507.3125,234.75)"/>
<path d="M0 0 C2.09171199 2.09171199 1.43051721 6.49495663 1.5625 9.375 C1.6049585 10.26662842 1.64741699 11.15825684 1.69116211 12.0769043 C2.30478869 27.03729321 2.08249434 42.03045073 2 57 C-1.73144531 58.13427734 -1.73144531 58.13427734 -4.1484375 56.92578125 C-4.88320313 56.39339844 -5.61796875 55.86101562 -6.375 55.3125 C-7.54869141 54.48298828 -7.54869141 54.48298828 -8.74609375 53.63671875 C-9.48988281 53.09660156 -10.23367188 52.55648437 -11 52 C-14.6732947 49.10637776 -14.6732947 49.10637776 -19 48 C-20.70770728 50.61664825 -22.3041554 53.23988229 -23.875 55.9375 C-34.4796261 73.70956108 -46.90764811 90.17369923 -60.3515625 105.88671875 C-62.75736114 108.70214402 -65.10452263 111.56128421 -67.4375 114.4375 C-81.91175971 132.18600876 -81.91175971 132.18600876 -89.4453125 139.44921875 C-91.12428184 141.12396958 -92.65037291 142.88192726 -94.1875 144.6875 C-97.7417606 148.81942824 -101.57318745 152.63431015 -105.47338867 156.4362793 C-108.17809556 159.09408115 -110.73436078 161.81606317 -113.203125 164.6953125 C-117.79771192 170.00511839 -122.77686677 174.92255942 -127.75 179.875 C-128.70459534 180.83316574 -129.65902343 181.79149813 -130.61328125 182.75 C-131.51949219 183.65492188 -132.42570313 184.55984375 -133.359375 185.4921875 C-134.17889648 186.31058105 -134.99841797 187.12897461 -135.84277344 187.97216797 C-138.37452986 190.35206485 -140.25382328 191.84382348 -143.6875 192.5625 C-151.78583732 191.18731064 -158.66421843 181.45560874 -164.25 175.8125 C-165.53632324 174.52049683 -165.53632324 174.52049683 -166.84863281 173.20239258 C-170.48494939 169.54986017 -174.11524371 165.89136365 -177.74609375 162.23339844 C-180.41197597 159.54934844 -183.0809181 156.86836759 -185.75 154.1875 C-186.55856445 153.37063721 -187.36712891 152.55377441 -188.20019531 151.7121582 C-192.45852645 147.43566315 -196.7919987 143.32582169 -201.37988281 139.40356445 C-202.63172416 138.3190503 -203.82883013 137.17116987 -205 136 C-209.19021357 136.15690227 -211.76325467 139.20074121 -214.625 141.9375 C-215.17696045 142.45530029 -215.7289209 142.97310059 -216.29760742 143.5065918 C-222.17725663 149.07090067 -227.87772829 154.82201514 -233.55517578 160.59155273 C-234.27560059 161.32059814 -234.99602539 162.04964355 -235.73828125 162.80078125 C-236.36774658 163.44184814 -236.99721191 164.08291504 -237.64575195 164.7434082 C-239.65107205 166.66554588 -241.69614607 168.48319668 -243.79760742 170.29760742 C-247.87759443 173.84458041 -251.70352604 177.59130112 -255.5 181.4375 C-256.17998047 182.12126709 -256.85996094 182.80503418 -257.56054688 183.50952148 C-259.70950926 185.67057055 -261.85517279 187.83484726 -264 190 C-266.83033837 192.85716017 -269.66412673 195.71083454 -272.5 198.5625 C-273.45036133 199.52530884 -273.45036133 199.52530884 -274.41992188 200.50756836 C-278.24011092 204.34830144 -282.18097902 207.98397352 -286.29051208 211.51393127 C-287.66043318 212.70481241 -288.98173352 213.95152634 -290.28515625 215.21484375 C-293.47350252 218.30508706 -295.3071355 219.8614271 -299.75 220.75 C-303 220 -303 220 -305.5 217.9375 C-307.51504709 213.99136612 -307.14020007 212.26973245 -306 208 C-304.09310546 205.2868409 -301.79298093 203.06918576 -299.40234375 200.78125 C-298.73465469 200.11967896 -298.06696564 199.45810791 -297.37904358 198.77648926 C-295.24555302 196.66985509 -293.09190432 194.58521846 -290.9375 192.5 C-289.51495495 191.09899639 -288.09371668 189.69666459 -286.67382812 188.29296875 C-276.3543246 178.13752598 -276.3543246 178.13752598 -271.09399414 173.609375 C-266.50245725 169.62840246 -262.24151709 165.34908801 -257.96875 161.03125 C-257.13339722 160.1921106 -256.29804443 159.35297119 -255.43737793 158.48840332 C-252.78912914 155.828031 -250.14415594 153.16443987 -247.5 150.5 C-244.01337399 146.98662727 -240.52335074 143.47668029 -237.03125 139.96875 C-236.24455933 139.17376099 -235.45786865 138.37877197 -234.64733887 137.55969238 C-230.45099146 133.34497041 -226.17601545 129.30442383 -221.64802551 125.44673157 C-219.63057013 123.67569321 -217.89295898 121.75811808 -216.1875 119.6875 C-213.55253673 116.50176056 -211.51983777 114.31810558 -207.3125 113.4375 C-202.16815521 114.31106798 -199.62224407 117.38953558 -196 121 C-195.2577417 121.73984131 -195.2577417 121.73984131 -194.50048828 122.49462891 C-190.07126539 126.91584959 -190.07126539 126.91584959 -187.91967773 129.1159668 C-185.21329541 131.86846873 -182.46667294 134.47964663 -179.515625 136.96875 C-175.46671278 140.46306984 -171.74936675 144.23937518 -168.015625 148.0625 C-167.38825439 148.70247925 -166.76088379 149.3424585 -166.11450195 150.00183105 C-163.48649093 152.68417003 -160.86017657 155.36774909 -158.25244141 158.06982422 C-156.33059797 160.0579218 -154.39350383 162.03001201 -152.453125 164 C-151.57022797 164.92631226 -151.57022797 164.92631226 -150.66949463 165.87133789 C-148.84410116 167.76744036 -148.84410116 167.76744036 -146 170 C-142.6330715 169.72880604 -140.95507913 168.32677816 -138.62768555 165.98413086 C-137.9898967 165.34934311 -137.35210785 164.71455536 -136.69499207 164.06053162 C-136.01576187 163.36895462 -135.33653168 162.67737762 -134.63671875 161.96484375 C-133.57140678 160.89672203 -133.57140678 160.89672203 -132.48457336 159.80702209 C-130.98074711 158.29647114 -129.4805242 156.78232562 -127.98364258 155.26489258 C-125.71348542 152.96383908 -123.43307986 150.67338072 -121.15039062 148.38476562 C-119.68688052 146.91207369 -118.22397097 145.43878466 -116.76171875 143.96484375 C-116.08856125 143.28743637 -115.41540375 142.61002899 -114.72184753 141.91209412 C-110.86049754 137.99342723 -107.159858 133.97843497 -103.57194519 129.80758667 C-101.00582207 126.85679044 -98.30766922 124.03188459 -95.625 121.1875 C-90.14534283 115.32514157 -85.0126943 109.2679461 -80 103 C-79.01871778 101.80841891 -78.03551955 100.61841404 -77.05078125 99.4296875 C-64.51094066 84.24745477 -52.96622205 68.34996862 -42 52 C-41.26265625 50.91203125 -40.5253125 49.8240625 -39.765625 48.703125 C-38.79882812 47.24132812 -38.79882812 47.24132812 -37.8125 45.75 C-36.98685547 44.50476563 -36.98685547 44.50476563 -36.14453125 43.234375 C-34.69606271 40.82505716 -34.69606271 40.82505716 -35 37 C-36.5708268 35.58790152 -36.5708268 35.58790152 -38.71875 34.5625 C-39.48574219 34.14226562 -40.25273438 33.72203125 -41.04296875 33.2890625 C-41.85378906 32.86367188 -42.66460938 32.43828125 -43.5 32 C-45.10122502 31.15992964 -46.69545896 30.30635358 -48.28125 29.4375 C-49.34956055 28.87869141 -49.34956055 28.87869141 -50.43945312 28.30859375 C-50.95443359 27.87675781 -51.46941406 27.44492187 -52 27 C-52 25.68 -52 24.36 -52 23 C-51.10917725 22.55720703 -50.21835449 22.11441406 -49.30053711 21.65820312 C-45.91664212 19.97547656 -42.53418411 18.2898777 -39.15209961 16.60351562 C-37.7029308 15.88140747 -36.25340049 15.16002422 -34.8034668 14.43945312 C-32.68957655 13.38874475 -30.57705528 12.33532846 -28.46484375 11.28125 C-27.76394623 10.93304199 -27.06304871 10.58483398 -26.34091187 10.22607422 C-22.77224687 8.44058731 -19.24956679 6.60251972 -15.77001953 4.6484375 C-15.09395157 4.27231323 -14.41788361 3.89618896 -13.72132874 3.50866699 C-12.44424663 2.79307234 -11.17373113 2.06558155 -9.91136169 1.32434082 C-6.22915611 -0.73333472 -4.03191218 -1.46063112 0 0 Z " fill="#3BECDC" transform="translate(664,362)"/>
<path d="M0 0 C0.33 0 0.66 0 1 0 C1 74.25 1 148.5 1 225 C-11.87 225 -24.74 225 -38 225 C-38.22597001 202.11201917 -38.41007916 179.22494516 -38.51812172 156.3361311 C-38.56962717 145.70781125 -38.63981237 135.08023503 -38.75439453 124.45239258 C-38.85424854 115.18619203 -38.91862475 105.92053015 -38.94088495 96.65380651 C-38.95389233 91.74942873 -38.98433118 86.84659157 -39.05730057 81.94270897 C-39.12551981 77.32031624 -39.14604958 72.70008834 -39.13107681 68.07723999 C-39.13381301 66.38694271 -39.1535082 64.69656807 -39.19205475 63.00670815 C-39.49698248 48.94098545 -39.49698248 48.94098545 -34.48774564 43.05894119 C-32.43014549 40.91826093 -30.22991055 38.95851288 -28 37 C-26.98031753 35.8364604 -25.98685792 34.64858973 -25.0390625 33.42578125 C-23.7862 31.81003463 -22.53322352 30.19437565 -21.27880859 28.57983398 C-14.77788266 20.17837648 -8.3061006 11.72878985 -2.2109375 3.02734375 C-1.48132813 2.02832031 -0.75171875 1.02929688 0 0 Z " fill="#3BEFDD" transform="translate(646,441)"/>
<path d="M0 0 C4.48481003 1.72918088 7.4944449 4.85549335 10.11852264 8.81682587 C11.23152487 13.29585043 11.13306706 17.61394122 11.02672577 22.20940399 C11.02446572 23.55046706 11.0257426 24.89154001 11.03026581 26.23259735 C11.03255035 29.85272291 10.98570267 33.47070443 10.92967415 37.09033394 C10.87947695 40.88052206 10.8749498 44.6707658 10.86547089 48.46123505 C10.84065988 55.62963174 10.77508621 62.79704599 10.69467497 69.96501112 C10.6050852 78.12935187 10.56122735 86.29374091 10.52111149 94.45845127 C10.43761307 111.24524103 10.29097398 128.03067843 10.11852264 144.81682587 C-3.08147736 144.81682587 -16.28147736 144.81682587 -29.88147736 144.81682587 C-30.10765585 129.60440859 -30.29167514 114.39275498 -30.39959908 99.17907906 C-30.45105409 92.11419135 -30.52113553 85.05042627 -30.63587189 77.98625946 C-30.74660817 71.16509042 -30.80436791 64.34508665 -30.83024979 57.5230751 C-30.84868667 54.92427878 -30.88469158 52.32554418 -30.93877792 49.72724533 C-31.3672456 28.28539197 -31.3672456 28.28539197 -27.72931671 23.06261444 C-25.23577203 20.52923075 -22.88594084 18.6918086 -19.88147736 16.81682587 C-18.53046824 15.67067437 -17.19333706 14.5075874 -15.88147736 13.31682587 C-15.24725861 12.78057587 -14.61303986 12.24432587 -13.95960236 11.69182587 C-10.48819984 8.55973337 -7.34908218 5.0938502 -4.17835236 1.66057587 C-1.88147736 -0.18317413 -1.88147736 -0.18317413 0 0 Z " fill="#39EDDC" transform="translate(457.88147735595703,521.1831741333008)"/>
<path d="M0 0 C0 49.83 0 99.66 0 151 C-12.87 151 -25.74 151 -39 151 C-39.86881741 136.92375099 -40.56094035 122.86603705 -40.96886253 108.76875114 C-41.16496686 102.21733195 -41.42894387 95.68558104 -41.86669922 89.14550781 C-44.88629569 42.84765833 -44.88629569 42.84765833 -30.40722656 25.84082031 C-6.93542483 0 -6.93542483 0 0 0 Z " fill="#3AEFDD" transform="translate(587,515)"/>
<path d="M0 0 C7.86231209 6.73912465 7.86231209 6.73912465 10.60546875 9.54296875 C11.19650391 10.14173828 11.78753906 10.74050781 12.39648438 11.35742188 C12.98751953 11.96134766 13.57855469 12.56527344 14.1875 13.1875 C19.98223476 19.89270269 19.98223476 19.89270269 27.65625 23.328125 C28.5946875 23.30234375 29.533125 23.2765625 30.5 23.25 C31.4384375 23.23453125 32.376875 23.2190625 33.34375 23.203125 C36.25443968 23.05528962 36.25443968 23.05528962 40 22 C40 53.02 40 84.04 40 116 C26.8 116 13.6 116 0 116 C0 77.72 0 39.44 0 0 Z " fill="#3AF0DF" transform="translate(488,550)"/>
<path d="M0 0 C0 31.68 0 63.36 0 96 C-12.87 96 -25.74 96 -39 96 C-39.33783357 88.4339356 -39.65755567 80.89575578 -39.82800293 73.32868195 C-39.91185033 69.80456499 -40.02332889 66.28680213 -40.20703125 62.76635742 C-41.45210555 38.25909262 -41.45210555 38.25909262 -35.67041016 31.00268555 C-32.39920395 27.66385078 -28.80663568 24.92398369 -24.93029785 22.32504272 C-22.42461646 20.60503102 -20.30592062 18.59885448 -18.1484375 16.46484375 C-16.24427461 14.68469948 -14.33991812 12.90478279 -12.43359375 11.12695312 C-9.43552762 8.32201395 -6.48122465 5.49317769 -3.6015625 2.56640625 C-1 0 -1 0 0 0 Z " fill="#3BF0DE" transform="translate(407,570)"/>
<path d="M0 0 C1.875 1.0625 1.875 1.0625 3 3 C3.1875 6.6875 3.1875 6.6875 3 10 C3.70125 10.0825 4.4025 10.165 5.125 10.25 C12.19175051 12.09350013 16.24892587 17.04959902 20 23 C21.19754817 26.59264452 21.33094958 29.22717474 21 33 C19.4375 35.5 19.4375 35.5 17 37 C10.78571429 36.78571429 10.78571429 36.78571429 8 34 C7.731875 32.88625 7.46375 31.7725 7.1875 30.625 C5.80425482 26.40246209 4.88242572 25.11001398 1 23 C-1.81610301 22.39573498 -4.18906512 22.35263318 -7 23 C-10.61010155 25.53475215 -11.76871396 27.20495424 -13 31.4375 C-13 35.71997501 -12.62948174 37.59714127 -10 41 C-7.11044699 42.42686605 -4.11177074 43.19616699 -1 44 C7.72608463 46.52480621 14.83984417 49.54797467 20.08984375 57.25390625 C22.77047053 62.39656793 22.65608355 68.3636459 22 74 C19.85229344 80.55420794 16.74060045 85.21120371 11 89 C9.7625 89.45375 8.525 89.9075 7.25 90.375 C3.6433982 91.71471856 3.6433982 91.71471856 2.6875 95.5625 C2.460625 96.696875 2.23375 97.83125 2 99 C0 101 0 101 -2.9375 101.3125 C-6 101 -6 101 -7.8125 99.875 C-9 98 -9 98 -9.0625 95.125 C-9.64645474 91.89234053 -9.64645474 91.89234053 -12.0703125 90.78125 C-13.85090366 89.99460077 -15.63218081 89.20950285 -17.4140625 88.42578125 C-22.03608846 85.87738325 -24.6797995 81.640401 -27 77 C-27.203125 74.94140625 -27.203125 74.94140625 -27.25 72.5625 C-27.28867187 71.38880859 -27.28867187 71.38880859 -27.328125 70.19140625 C-26.92058986 67.46965371 -26.18774308 66.62415587 -24 65 C-20.75236975 64.5854089 -18.72081007 64.65961747 -15.75 66.0625 C-14 68 -14 68 -13.0625 71.4375 C-11.80709733 75.64679131 -10.81271596 76.88182446 -7 79 C-2.2711041 79.51587955 1.70606732 79.09703689 6 77 C8.39678853 73.18692734 8.47267481 69.41163157 8 65 C5.91644588 61.5882435 4.73811791 60.21968889 0.86328125 59.06640625 C-0.30847656 58.90011719 -1.48023438 58.73382813 -2.6875 58.5625 C-12.30427858 56.76497129 -18.12667853 52.94317435 -23.80859375 45.02734375 C-27.29162596 39.1004791 -27.75107007 33.75963062 -27 27 C-25.03273234 20.22647362 -20.01946742 14.36530198 -13.96875 10.8046875 C-12 10 -12 10 -9 10 C-9.061875 8.906875 -9.12375 7.81375 -9.1875 6.6875 C-9 3 -9 3 -7.875 1.0625 C-5.11019567 -0.50422245 -3.11811483 -0.38976435 0 0 Z " fill="#39EBDA" transform="translate(515,362)"/>
<path d="M0 0 C0.66 0 1.32 0 2 0 C2.51046875 1.17755859 2.51046875 1.17755859 3.03125 2.37890625 C8.05320028 13.26425062 13.78827324 18.82155554 25 23 C25 23.66 25 24.32 25 25 C24.21496094 25.3403125 23.42992187 25.680625 22.62109375 26.03125 C11.73574938 31.05320028 6.17844446 36.78827324 2 48 C1.34 48 0.68 48 0 48 C-0.3403125 47.21496094 -0.680625 46.42992187 -1.03125 45.62109375 C-6.05320028 34.73574938 -11.78827324 29.17844446 -23 25 C-23 24.34 -23 23.68 -23 23 C-22.21496094 22.6596875 -21.42992187 22.319375 -20.62109375 21.96875 C-9.73574938 16.94679972 -4.17844446 11.21172676 0 0 Z " fill="#858C91" transform="translate(967,944)"/>
<path d="M0 0 C0.99 0.99 1.98 1.98 3 3 C2.67 3.33 2.34 3.66 2 4 C1.89232174 5.44169463 1.85319047 6.88857858 1.84178162 8.33424377 C1.8319928 9.26958954 1.82220398 10.2049353 1.81211853 11.16862488 C1.80636307 12.20296158 1.8006076 13.23729828 1.79467773 14.30297852 C1.78477814 15.38577087 1.77487854 16.46856323 1.76467896 17.58416748 C1.73295588 21.18239109 1.70826397 24.78062793 1.68359375 28.37890625 C1.66303355 30.86612807 1.64203734 33.35334632 1.62062073 35.84056091 C1.57096517 41.73017888 1.52572497 47.61981797 1.48259836 53.50948709 C1.42843101 60.87029421 1.36745396 68.23104219 1.30664062 75.59179688 C1.1989412 88.72782619 1.09803769 101.86389502 1 115 C13.54 115 26.08 115 39 115 C38.67 84.31 38.34 53.62 38 22 C38.66 22 39.32 22 40 22 C40 53.02 40 84.04 40 116 C26.8 116 13.6 116 0 116 C0 77.72 0 39.44 0 0 Z " fill="#2DB8AD" transform="translate(488,550)"/>
<path d="M0 0 C0.99 0.33 1.98 0.66 3 1 C2.41734375 1.52207031 1.8346875 2.04414063 1.234375 2.58203125 C0.41453125 3.31808594 -0.4053125 4.05414063 -1.25 4.8125 C-2.15492188 5.62460937 -3.05984375 6.43671875 -3.9921875 7.2734375 C-6.07835173 9.15526533 -8.14253061 11.05838926 -10.1953125 12.9765625 C-10.72479492 13.46922607 -11.25427734 13.96188965 -11.79980469 14.46948242 C-12.83262273 15.43202658 -13.86205404 16.39822042 -14.88769531 17.3684082 C-17.43705901 19.73856005 -19.76971145 21.66042536 -23 23 C-16.31394881 14.86831611 -8.66938906 6.06857234 0 0 Z " fill="#165A58" transform="translate(456,497)"/>
<path d="M0 0 C1.8871875 0.061875 1.8871875 0.061875 3.8125 0.125 C3.8125 0.455 3.8125 0.785 3.8125 1.125 C1.95625 1.49625 1.95625 1.49625 0.0625 1.875 C-3.71030061 2.82320829 -5.82170297 3.90751605 -8.1875 7.125 C-9.54240794 10.35593432 -9.02400281 12.77898876 -8.1875 16.125 C-8.8475 16.125 -9.5075 16.125 -10.1875 16.125 C-11.65580986 9.02816901 -11.65580986 9.02816901 -9.4375 4.75 C-6.43676876 1.24914689 -4.55425074 -0.1493197 0 0 Z " fill="#1B6B67" transform="translate(512.1875,383.875)"/>
<path d="M0 0 C0.33 0.99 0.66 1.98 1 3 C0.01 4.485 0.01 4.485 -1 6 C-1.66 6 -2.32 6 -3 6 C-3.33 6.99 -3.66 7.98 -4 9 C-4.66 9 -5.32 9 -6 9 C-6 9.66 -6 10.32 -6 11 C-7.95927063 12.7143618 -9.95880212 14.38405168 -12 16 C-12.66 15.67 -13.32 15.34 -14 15 C-12.73542969 13.75283203 -12.73542969 13.75283203 -11.4453125 12.48046875 C-10.33840925 11.38294603 -9.2316457 10.28528241 -8.125 9.1875 C-7.56941406 8.64029297 -7.01382813 8.09308594 -6.44140625 7.52929688 C-5.90644531 6.99755859 -5.37148438 6.46582031 -4.8203125 5.91796875 C-4.32805176 5.43094482 -3.83579102 4.9439209 -3.32861328 4.44213867 C-1.77411511 2.82996499 -1.77411511 2.82996499 0 0 Z " fill="#185B5A" transform="translate(573,502)"/>
<path d="M0 0 C0.99 0.99 1.98 1.98 3 3 C2.67 3.33 2.34 3.66 2 4 C1.84259395 5.70563778 1.74906608 7.41727244 1.68359375 9.12890625 C1.64169922 10.16337891 1.59980469 11.19785156 1.55664062 12.26367188 C1.51732422 13.35228516 1.47800781 14.44089844 1.4375 15.5625 C1.39431641 16.65498047 1.35113281 17.74746094 1.30664062 18.87304688 C1.20017932 21.58189564 1.09816484 24.29083992 1 27 C0.67 27 0.34 27 0 27 C0 18.09 0 9.18 0 0 Z " fill="#36D8CB" transform="translate(488,550)"/>
<path d="M0 0 C0 0.33 0 0.66 0 1 C-1.65 1 -3.3 1 -5 1 C-5.33 1.99 -5.66 2.98 -6 4 C-6.66 4 -7.32 4 -8 4 C-8 5.98 -8 7.96 -8 10 C-8.33 10 -8.66 10 -9 10 C-9.36103152 3.6217765 -9.36103152 3.6217765 -7.875 1.0625 C-5.214973 -0.44484863 -2.99793795 -0.19986253 0 0 Z " fill="#30CEC0" transform="translate(515,362)"/>
<path d="M0 0 C0.66 0.33 1.32 0.66 2 1 C0.02 3.31 -1.96 5.62 -4 8 C-4.33 7.01 -4.66 6.02 -5 5 C-3.35 3.35 -1.7 1.7 0 0 Z " fill="#38D8CA" transform="translate(561,491)"/>
<path d="M0 0 C0.66 0.33 1.32 0.66 2 1 C1.01 1.33 0.02 1.66 -1 2 C-2.21869929 4.50447516 -2.21869929 4.50447516 -3 7 C-3.33 7 -3.66 7 -4 7 C-4 5.35 -4 3.7 -4 2 C-2.125 0.9375 -2.125 0.9375 0 0 Z " fill="#1B6B69" transform="translate(522,452)"/>
</svg>
