<?xml version="1.0" encoding="UTF-8"?>
<svg version="1.1" xmlns="http://www.w3.org/2000/svg" width="1024" height="1024">
<path d="M0 0 C337.92 0 675.84 0 1024 0 C1024 337.92 1024 675.84 1024 1024 C686.08 1024 348.16 1024 0 1024 C0 686.08 0 348.16 0 0 Z " fill="#202C30" transform="translate(0,0)"/>
<path d="M0 0 C2.19346524 0.50860116 4.38501499 0.91902531 6.60351562 1.30273438 C26.07814231 4.75311197 44.54105157 12.72051978 62.18164062 21.50585938 C63.06464844 21.94027344 63.94765625 22.3746875 64.85742188 22.82226562 C66.63810007 23.70491613 68.4113118 24.60263038 70.18164062 25.50585938 C70.18164062 26.16585938 70.18164062 26.82585937 70.18164062 27.50585938 C70.85195313 27.57933594 71.52226563 27.6528125 72.21289062 27.72851562 C76.20070828 28.7726942 79.23180074 30.73173229 82.68164062 32.94335938 C83.38651611 33.39074463 84.0913916 33.83812988 84.81762695 34.29907227 C91.02437117 38.29667193 96.91206215 42.61294574 102.64453125 47.26123047 C104.12030151 48.45619184 105.61162043 49.63187288 107.10351562 50.80664062 C124.05303122 64.57263322 139.76238049 80.5307303 152.18164062 98.50585938 C152.65553223 99.18825684 153.12942383 99.8706543 153.61767578 100.57373047 C157.38589339 106.03590563 161.09002074 111.51657955 164.33398438 117.31054688 C165.98262053 120.47895592 165.98262053 120.47895592 168.18164062 122.50585938 C169.59580601 125.21758877 170.9405061 127.92884149 172.24414062 130.69335938 C172.63827148 131.52907471 173.03240234 132.36479004 173.43847656 133.22583008 C182.39565742 152.53775351 190.21633766 172.47307488 193.50585938 193.56835938 C194.20258706 197.62790568 195.13730016 201.52403362 196.18164062 205.50585938 C198.22355649 205.38499831 200.26515161 205.25872802 202.30664062 205.13085938 C202.95810059 205.09049561 203.60956055 205.05013184 204.28076172 205.00854492 C208.49809892 204.73117801 212.69669986 204.36311381 216.90039062 203.92382812 C217.87733887 203.82440918 218.85428711 203.72499023 219.86083984 203.62255859 C221.80105385 203.42220167 223.74026446 203.2118364 225.67822266 202.99072266 C234.14301811 202.12925447 234.14301811 202.12925447 238.18164062 204.50585938 C240.792543 206.93669951 241.15578642 208.30641264 241.61914062 211.88085938 C241.10328622 216.15508157 239.80238662 218.13632881 237.18164062 221.50585938 C236.64539063 222.28960937 236.10914063 223.07335937 235.55664062 223.88085938 C234.87601563 224.68523437 234.87601563 224.68523437 234.18164062 225.50585938 C233.52164062 225.50585938 232.86164063 225.50585938 232.18164062 225.50585938 C231.84132813 226.58867187 231.84132813 226.58867187 231.49414062 227.69335938 C229.91620707 231.07464557 227.84617797 232.90328801 225.18164062 235.50585938 C224.26432356 236.7612733 223.36851481 238.03266715 222.49414062 239.31835938 C221.34945312 240.89617187 221.34945312 240.89617187 220.18164062 242.50585938 C219.52164062 242.50585938 218.86164063 242.50585938 218.18164062 242.50585938 C217.94574219 243.05113281 217.70984375 243.59640625 217.46679688 244.15820312 C215.84152351 247.12716753 213.81275558 249.49026105 211.61914062 252.06835938 C210.71630964 253.13565574 209.81397665 254.20337354 208.91210938 255.27148438 C208.45626465 255.80966797 208.00041992 256.34785156 207.53076172 256.90234375 C205.46994315 259.35175678 203.45169908 261.8352994 201.43164062 264.31835938 C199.037907 267.25707613 196.62490786 270.16238766 194.11914062 273.00585938 C190.79053788 276.81659956 187.97334896 280.98379402 185.11132812 285.15039062 C182.22862818 288.6691519 179.28284812 289.87671314 174.80664062 290.38085938 C167.13178522 290.24522128 162.10528827 284.12025491 156.88037109 279.12646484 C154.40243172 276.76248647 151.85201077 274.48454554 149.30664062 272.19335938 C147.97439453 270.97326172 147.97439453 270.97326172 146.61523438 269.72851562 C142.14457562 265.64536181 137.57022173 261.68743559 132.96289062 257.75976562 C126.42977569 252.18737638 119.9731504 246.56331321 113.65039062 240.75195312 C111.4038301 238.70800961 109.11759621 236.7262077 106.80664062 234.75585938 C105.59231817 233.67924359 104.38344268 232.5964337 103.18164062 231.50585938 C102.64152344 231.02890625 102.10140625 230.55195313 101.54492188 230.06054688 C99.3888388 227.89855672 98.2049926 226.21575926 98.10351562 223.13085938 C98.34281351 220.87864398 98.68589011 218.71464881 99.18164062 216.50585938 C99.84164063 216.50585938 100.50164062 216.50585938 101.18164062 216.50585938 C101.18164062 215.84585938 101.18164062 215.18585938 101.18164062 214.50585938 C114.09713176 211.5029348 126.99760283 211.35354058 140.18164062 211.50585938 C130.28979168 173.76184589 115.47046021 139.98717819 88.18164062 111.50585938 C87.70855469 111.00554199 87.23546875 110.50522461 86.74804688 109.98974609 C76.91242211 99.62435698 66.07009992 91.00199658 54.24414062 83.00585938 C53.64174561 82.5964209 53.03935059 82.18698242 52.41870117 81.76513672 C48.48613256 79.16736689 44.56102234 77.25090037 40.18164062 75.50585938 C40.18164062 74.84585938 40.18164062 74.18585938 40.18164062 73.50585938 C38.97507812 73.13460937 38.97507812 73.13460937 37.74414062 72.75585938 C35.1107799 71.83187316 32.7019824 70.85695642 30.18164062 69.69335938 C24.98500688 67.32560987 19.61804341 65.50044595 14.22070312 63.65429688 C11.18164062 62.50585938 11.18164062 62.50585938 8.18164062 60.50585938 C3.5511524 59.12456119 -1.1725456 58.08896886 -5.88085938 57.00585938 C-6.9050145 56.76958328 -6.9050145 56.76958328 -7.94985962 56.52853394 C-18.53516513 54.10439563 -28.94423696 51.95568818 -39.81835938 51.50585938 C-40.78708984 51.46348145 -41.75582031 51.42110352 -42.75390625 51.37744141 C-60.13604586 50.73924889 -76.73788176 52.3201583 -93.81835938 55.50585938 C-94.6454541 55.65539062 -95.47254883 55.80492187 -96.32470703 55.95898438 C-108.43486592 58.21641205 -119.53829241 62.64202243 -130.81835938 67.50585938 C-132.01589844 68.01246094 -133.2134375 68.5190625 -134.44726562 69.04101562 C-142.38609658 72.53799761 -149.7307675 76.84242707 -157.07861328 81.42285156 C-158.66649695 82.41132363 -160.26346408 83.3851657 -161.86132812 84.35742188 C-172.90114137 91.17750397 -182.42448261 99.61505965 -191.81835938 108.50585938 C-192.76839844 109.40175781 -193.7184375 110.29765625 -194.69726562 111.22070312 C-195.58285156 112.07792969 -196.4684375 112.93515625 -197.38085938 113.81835938 C-198.16589844 114.57761719 -198.9509375 115.336875 -199.75976562 116.11914062 C-202.01878521 118.73823164 -203.30954651 121.40974048 -204.81835938 124.50585938 C-206.1435644 125.18854075 -207.47648119 125.85656348 -208.81835938 126.50585938 C-209.54740023 128.14620131 -210.2049118 129.81887855 -210.81835938 131.50585938 C-212.81835938 134.81835938 -212.81835938 134.81835938 -214.81835938 137.50585938 C-215.47835937 137.50585938 -216.13835937 137.50585938 -216.81835938 137.50585938 C-217.06585938 138.37210938 -217.31335938 139.23835937 -217.56835938 140.13085938 C-219.21635836 144.58045663 -221.46177589 148.14927589 -224.81835938 151.50585938 C-230.4841601 152.63901952 -234.0176026 149.82525558 -238.54882812 146.81835938 C-240.81423775 145.25554683 -240.81423775 145.25554683 -243.81835938 145.50585938 C-244.31335938 144.51585937 -244.31335938 144.51585937 -244.81835938 143.50585938 C-247.28022835 142.19049256 -249.73899368 140.95671686 -252.25585938 139.75585938 C-268.4934737 131.83074505 -268.4934737 131.83074505 -272.81835938 127.50585938 C-273.7863392 122.38673531 -271.00662319 118.97034366 -268.31835938 114.88085938 C-267.86420654 114.17372803 -267.41005371 113.46659668 -266.94213867 112.73803711 C-261.4598242 104.27777015 -255.49571968 96.22450176 -249.16601562 88.38085938 C-247.63245482 86.44298566 -247.63245482 86.44298566 -246.81835938 83.50585938 C-245.43554688 82.18164062 -245.43554688 82.18164062 -243.69335938 80.81835938 C-241.03612429 78.6246582 -238.73811728 76.38048565 -236.50585938 73.75585938 C-229.06835114 65.05944106 -220.8084503 57.55999533 -211.81835938 50.50585938 C-210.80902344 49.70277344 -209.7996875 48.8996875 -208.75976562 48.07226562 C-151.50248307 2.87614413 -71.50569022 -17.76419389 0 0 Z " fill="#2DFBF3" transform="translate(560.818359375,268.494140625)"/>
<path d="M0 0 C1.44480188 0.66257293 2.89011269 1.32403723 4.3359375 1.984375 C5.37379395 2.46487305 5.37379395 2.46487305 6.43261719 2.95507812 C8.63694735 3.9604817 10.86695999 4.8723166 13.125 5.75 C14.85416667 6.4375 16.58333333 7.125 18.3125 7.8125 C19.05032715 8.1027002 19.7881543 8.39290039 20.54833984 8.69189453 C23.14214241 9.71828422 25.72746193 10.76425257 28.3125 11.8125 C29.58830933 12.31124634 29.58830933 12.31124634 30.88989258 12.82006836 C31.68935303 13.1475708 32.48881348 13.47507324 33.3125 13.8125 C34.034375 14.10125 34.75625 14.39 35.5 14.6875 C37.79801287 16.11385282 38.46559206 17.26045227 39.3125 19.8125 C38.64418497 22.38115429 37.91948344 24.62241993 36.9375 27.0625 C36.69 27.7121875 36.4425 28.361875 36.1875 29.03125 C35.57610986 30.63027037 34.94609041 32.22214556 34.3125 33.8125 C33.6525 33.8125 32.9925 33.8125 32.3125 33.8125 C32.209375 34.658125 32.10625 35.50375 32 36.375 C30.50655938 43.8422031 26.52524226 50.22642107 22.75 56.75 C22.25564453 57.62462891 21.76128906 58.49925781 21.25195312 59.40039062 C20.77564453 60.22603516 20.29933594 61.05167969 19.80859375 61.90234375 C19.37732178 62.65378662 18.9460498 63.40522949 18.50170898 64.17944336 C18.10927002 64.71835205 17.71683105 65.25726074 17.3125 65.8125 C16.6525 65.8125 15.9925 65.8125 15.3125 65.8125 C15.19777344 66.38484375 15.08304688 66.9571875 14.96484375 67.546875 C14.25067644 70.02721656 13.23942128 71.87618697 11.875 74.0625 C11.22724609 75.12210938 11.22724609 75.12210938 10.56640625 76.203125 C10.15261719 76.73421875 9.73882813 77.2653125 9.3125 77.8125 C8.6525 77.8125 7.9925 77.8125 7.3125 77.8125 C7.044375 78.781875 6.77625 79.75125 6.5 80.75 C6.108125 81.760625 5.71625 82.77125 5.3125 83.8125 C3.8275 84.3075 3.8275 84.3075 2.3125 84.8125 C1.30333967 86.57841887 1.30333967 86.57841887 0.3125 88.8125 C-1.6875 92.0625 -1.6875 92.0625 -3.6875 94.8125 C-4.3475 94.8125 -5.0075 94.8125 -5.6875 94.8125 C-6.09150024 95.69760254 -6.09150024 95.69760254 -6.50366211 96.60058594 C-7.68677735 98.81114979 -8.92473185 100.37482298 -10.62890625 102.203125 C-11.49817749 103.13825928 -11.49817749 103.13825928 -12.38500977 104.09228516 C-13.00045654 104.74245605 -13.61590332 105.39262695 -14.25 106.0625 C-15.1934729 107.06676025 -15.1934729 107.06676025 -16.15600586 108.09130859 C-20.210447 112.36641019 -24.3800677 116.41363914 -28.86328125 120.2421875 C-30.45279496 121.61046268 -31.95447424 123.07947424 -33.4375 124.5625 C-35.73457698 126.85957698 -38.06327984 128.89752853 -40.6875 130.8125 C-41.3475 130.8125 -42.0075 130.8125 -42.6875 130.8125 C-42.6875 131.4725 -42.6875 132.1325 -42.6875 132.8125 C-44.45123003 134.11067693 -46.27663951 135.32544883 -48.125 136.5 C-52.02111749 139.02424513 -55.76512782 141.58137994 -59.375 144.5 C-62.77254619 147.19022785 -66.18141714 149.36121715 -70.01171875 151.37890625 C-72.08956359 152.49214575 -74.11621028 153.64171417 -76.14453125 154.83984375 C-92.93194102 164.6824365 -111.07536431 172.07553977 -129.9375 176.875 C-130.93966553 177.13249023 -131.94183105 177.38998047 -132.97436523 177.65527344 C-174.51295503 188.19267312 -215.97536135 188.25361258 -257.6875 178.8125 C-258.40309082 178.65555664 -259.11868164 178.49861328 -259.85595703 178.33691406 C-271.63252192 175.71316691 -282.78994084 171.17281816 -294.01904297 166.83935547 C-297.56678467 165.47414032 -301.12593773 164.14118771 -304.6875 162.8125 C-305.0175 163.8025 -305.3475 164.7925 -305.6875 165.8125 C-306.3475 165.8125 -307.0075 165.8125 -307.6875 165.8125 C-307.955625 166.885 -308.22375 167.9575 -308.5 169.0625 C-309.6875 172.8125 -309.6875 172.8125 -311.125 174.6875 C-312.74287546 176.88781063 -313.20553442 178.39995048 -313.9375 181 C-315.67210128 186.47625429 -318.5460533 190.83000009 -322.6875 194.8125 C-326.22498144 196.15674295 -327.7780178 196.06630899 -331.375 195.0625 C-335.45148834 192.85899279 -337.01072442 190.59774473 -338.42993164 186.22216797 C-338.89217384 184.81900581 -338.89217384 184.81900581 -339.36375427 183.38749695 C-339.68844193 182.37016983 -340.01312958 181.35284271 -340.34765625 180.3046875 C-340.69421768 179.24292801 -341.04077911 178.18116852 -341.39784241 177.0872345 C-342.5250564 173.6237541 -343.63831246 170.15599251 -344.75 166.6875 C-345.51585472 164.31477655 -346.28196874 161.94213679 -347.04833984 159.56958008 C-348.93313483 153.72150344 -350.80338672 147.86890084 -352.66717529 142.01409912 C-353.59998772 139.08709811 -354.53753798 136.16167212 -355.47705078 133.23681641 C-356.72346949 129.35080088 -357.95408175 125.4602427 -359.16744995 121.56378174 C-359.59365795 120.20016618 -360.02434618 118.83794197 -360.45974731 117.47723389 C-361.05252183 115.61821349 -361.6244814 113.75259396 -362.1953125 111.88671875 C-362.66928467 110.36437622 -362.66928467 110.36437622 -363.15283203 108.8112793 C-363.97709267 104.18826862 -363.15832034 100.22496102 -361.6875 95.8125 C-354.43081714 90.84915269 -345.41471076 88.53027919 -337.1328125 85.87109375 C-335.74072968 85.41769347 -334.34887813 84.96358259 -332.95724487 84.50880432 C-329.31782593 83.32147819 -325.67546892 82.14344144 -322.03234863 80.9675293 C-318.35443471 79.77870455 -314.67925109 78.58150448 -311.00390625 77.38476562 C-306.85293081 76.03355334 -302.70173063 74.68308489 -298.54837036 73.33921814 C-297.30022552 72.93522293 -296.05208069 72.53122772 -294.76611328 72.11499023 C-293.57560364 71.73011444 -292.38509399 71.34523865 -291.1585083 70.94869995 C-286.83265064 69.53267359 -282.52622641 68.06194287 -278.224823 66.57337952 C-274.35388087 65.41258108 -271.7043667 65.17825789 -267.6875 65.8125 C-264.67756901 68.05393797 -263.06157396 69.58940704 -261.95776367 73.19848633 C-261.64705028 76.20373319 -262.10332842 77.69631172 -263.30078125 80.44921875 C-263.67541504 81.31853027 -264.05004883 82.1878418 -264.43603516 83.08349609 C-266.94974994 88.5650224 -269.57553139 93.98702295 -272.24023438 99.39648438 C-272.88508789 100.72583008 -272.88508789 100.72583008 -273.54296875 102.08203125 C-273.93121826 102.87198486 -274.31946777 103.66193848 -274.71948242 104.47583008 C-275.72921425 106.91319284 -276.25631373 109.21531466 -276.6875 111.8125 C-257.31547296 119.61540475 -238.41222928 125.11803337 -217.6875 127.8125 C-216.67300781 127.94527344 -215.65851563 128.07804688 -214.61328125 128.21484375 C-170.93181142 132.98128216 -121.96713844 120.17530675 -86.6875 93.8125 C-85.74970703 92.83023438 -85.74970703 92.83023438 -84.79296875 91.828125 C-82.58617836 89.71550192 -80.28197869 88.48495692 -77.61914062 87.02734375 C-73.80599669 84.62918851 -70.66969247 81.42608327 -67.4375 78.3125 C-66.69097168 77.59908447 -65.94444336 76.88566895 -65.17529297 76.15063477 C-43.62740645 55.39607898 -26.43166166 30.87720031 -15.9140625 2.76171875 C-14.6875 -0.1875 -14.6875 -0.1875 -12.6875 -2.1875 C-7.861224 -4.04240753 -4.38076146 -2.09707956 0 0 Z " fill="#2EFBF3" transform="translate(709.6875,586.1875)"/>
<path d="M0 0 C5.66176471 2.98529412 5.66176471 2.98529412 7 7 C7.66 7 8.32 7 9 7 C10.48046875 8.50390625 10.48046875 8.50390625 12.1875 10.5625 C14.53279758 13.3253868 16.90829405 15.96679757 19.5 18.5 C22.62888487 21.57276137 25.49983182 24.81442036 28.35546875 28.140625 C29.82325682 29.80016685 31.33851979 31.34358233 32.9375 32.875 C35 35 35 35 35 37 C35.66 37 36.32 37 37 37 C38.48046875 38.50390625 38.48046875 38.50390625 40.1875 40.5625 C42.53279758 43.3253868 44.90829405 45.96679757 47.5 48.5 C50.63203172 51.57585178 53.50401742 54.82305162 56.3671875 58.1484375 C57.76823403 59.73718405 59.25216039 61.25216039 60.75 62.75 C64.44221949 66.44221949 67.15474184 69.71713653 68 75 C66.33206452 78.04610251 64.13907054 80.43046473 61 82 C58.15570643 82.08691001 55.33620824 82.11553802 52.4921875 82.09765625 C51.65156769 82.0962413 50.81094788 82.09482635 49.94485474 82.09336853 C47.25486725 82.08776237 44.56496241 82.07520886 41.875 82.0625 C40.05338662 82.05748579 38.23177193 82.05292275 36.41015625 82.04882812 C31.94007223 82.03779094 27.47005014 82.0205222 23 82 C26.35838445 111.37227145 31.29474094 140.50316583 45 167 C45.35884277 167.70527832 45.71768555 168.41055664 46.08740234 169.13720703 C50.29130042 177.38158809 54.54736994 185.4946151 60 193 C57.87068249 197.82645302 54.57058558 199.8678229 50.25390625 202.5703125 C47.96606157 203.97121746 47.96606157 203.97121746 45.83984375 205.6796875 C44 207 44 207 42 207 C42 207.66 42 208.32 42 209 C40.57885742 210.20507812 40.57885742 210.20507812 38.60546875 211.53125 C37.89712891 212.01207031 37.18878906 212.49289062 36.45898438 212.98828125 C35.33459961 213.73658203 35.33459961 213.73658203 34.1875 214.5 C33.08051758 215.24830078 33.08051758 215.24830078 31.95117188 216.01171875 C29.97189202 217.34795655 27.98760153 218.6761839 26 220 C25.01 220.66 24.02 221.32 23 222 C22.01 222 21.02 222 20 222 C20 222.66 20 223.32 20 224 C15.60344828 225.22126437 15.60344828 225.22126437 13.0078125 224.26953125 C7.14030325 220.55953026 3.85237969 212.13948741 0.68359375 206.1640625 C-0.52695253 203.88902192 -1.76056075 201.64144069 -3.02734375 199.3984375 C-22.67658539 164.13248059 -33.35176951 123.35045037 -33 83 C-33.93271729 83.00523682 -34.86543457 83.01047363 -35.82641602 83.01586914 C-39.31340157 83.03299302 -42.8003419 83.04548993 -46.28735352 83.05493164 C-47.7915925 83.05993555 -49.29582668 83.06674073 -50.80004883 83.07543945 C-52.97218009 83.08767884 -55.14424659 83.09326786 -57.31640625 83.09765625 C-58.62037354 83.10289307 -59.92434082 83.10812988 -61.26782227 83.11352539 C-70.79614105 82.82369297 -70.79614105 82.82369297 -74.375 80.375 C-76.57752819 77.15592034 -76.93292916 74.89010867 -77 71 C-74.91445637 65.65155979 -71.66444997 62.29350551 -67.6171875 58.39453125 C-66.69487839 57.48570442 -66.69487839 57.48570442 -65.75393677 56.55851746 C-63.80135904 54.63581268 -61.83913056 52.72339622 -59.875 50.8125 C-57.90466965 48.88999787 -55.93668095 46.96531018 -53.97463989 45.03434753 C-52.75661213 43.83608158 -51.5336767 42.64277948 -50.3053894 41.45503235 C-46.96530522 38.18609965 -46.96530522 38.18609965 -45 34 C-44.01 33.67 -43.02 33.34 -42 33 C-40.28547658 31.30846256 -40.28547658 31.30846256 -38.625 29.25 C-35.8777388 26.00846169 -33.00552509 23.00552509 -30 20 C-28.8907371 18.71270725 -27.78703355 17.4206129 -26.6875 16.125 C-23.63500808 12.59264036 -20.35029688 9.55029929 -16.7890625 6.5390625 C-14.85556732 4.9215091 -14.85556732 4.9215091 -12.6875 2.625 C-9.22656209 -0.70775502 -4.5439897 -0.63444384 0 0 Z " fill="#2DFBF3" transform="translate(293,438)"/>
<path d="M0 0 C0.66 0 1.32 0 2 0 C2.51046875 1.17755859 2.51046875 1.17755859 3.03125 2.37890625 C8.05320028 13.26425062 13.78827324 18.82155554 25 23 C25 23.66 25 24.32 25 25 C24.21496094 25.3403125 23.42992187 25.680625 22.62109375 26.03125 C11.73574938 31.05320028 6.17844446 36.78827324 2 48 C1.34 48 0.68 48 0 48 C-0.3403125 47.21496094 -0.680625 46.42992187 -1.03125 45.62109375 C-6.05320028 34.73574938 -11.78827324 29.17844446 -23 25 C-23 24.34 -23 23.68 -23 23 C-22.21496094 22.6596875 -21.42992187 22.319375 -20.62109375 21.96875 C-9.73574938 16.94679972 -4.17844446 11.21172676 0 0 Z " fill="#888A8A" transform="translate(967,944)"/>
<path d="M0 0 C0.66 0.33 1.32 0.66 2 1 C0.68 2.32 -0.64 3.64 -2 5 C-2.66 4.67 -3.32 4.34 -4 4 C-2.68 2.68 -1.36 1.36 0 0 Z M-5 2 C-4.34 2.33 -3.68 2.66 -3 3 C-4.47860293 5.87938464 -5.47986175 7.69141814 -8.29956055 9.36425781 C-11.35024462 11.21215432 -13.52379432 13.31388046 -16.01953125 15.859375 C-16.48179611 16.32684143 -16.94406097 16.79430786 -17.42033386 17.27593994 C-18.88927922 18.76256853 -20.35134387 20.2557182 -21.8125 21.75 C-29.52928273 29.61525688 -37.30469694 37.20679448 -46 44 C-43.74380796 38.46207409 -39.02118075 35.01449891 -34.625 31.1875 C-30.34833962 27.41190049 -26.67477728 23.35087267 -23 19 C-17.48027634 12.53316508 -11.93317977 6.94992977 -5 2 Z M-48 44 C-47.34 44.33 -46.68 44.66 -46 45 C-47.32 45.99 -48.64 46.98 -50 48 C-49.34 46.68 -48.68 45.36 -48 44 Z M-51 48 C-51 52.17678609 -53.31657447 53.83868578 -56.0625 56.6875 C-57.07102875 57.75844053 -58.07883999 58.8300572 -59.0859375 59.90234375 C-59.5819043 60.42683105 -60.07787109 60.95131836 -60.58886719 61.49169922 C-63.48068586 64.58264312 -66.23720259 67.79402348 -69 71 C-69.33 70.01 -69.66 69.02 -70 68 C-69.50628906 67.54109375 -69.01257813 67.0821875 -68.50390625 66.609375 C-67.54291016 65.68898438 -67.54291016 65.68898438 -66.5625 64.75 C-65.92441406 64.14671875 -65.28632813 63.5434375 -64.62890625 62.921875 C-62.86712527 61.16132438 -62.86712527 61.16132438 -62.625 59.0625 C-61.61766383 55.73829063 -59.11923598 54.3460695 -56.4375 52.25 C-54.91962891 51.05117188 -54.91962891 51.05117188 -53.37109375 49.828125 C-52.58863281 49.22484375 -51.80617188 48.6215625 -51 48 Z " fill="#1F6C6A" transform="translate(357,301)"/>
<path d="M0 0 C-0.495 0.639375 -0.99 1.27875 -1.5 1.9375 C-3.09802862 3.70974339 -3.09802862 3.70974339 -3 5 C-4.423125 4.9071875 -4.423125 4.9071875 -5.875 4.8125 C-9.22324573 4.77861087 -11.84578345 5.53018783 -15 6.625 C-19.6989533 8.17230329 -22.28198929 7.57267024 -27 6 C-29.86430119 6.74216399 -29.86430119 6.74216399 -32 8 C-32 7.34 -32 6.68 -32 6 C-33.32 6 -34.64 6 -36 6 C-35.8125 4.125 -35.8125 4.125 -35 2 C-31.59973965 0.11096647 -28.83652674 -0.19674496 -25 0 C-21.31627347 0.16602736 -21.31627347 0.16602736 -19.0859375 -0.4921875 C-13.05015727 -1.9615722 -6.00906565 -1.29925744 0 0 Z " fill="#216160" transform="translate(518,249)"/>
<path d="M0 0 C0 3 0 3 -1.92773438 5.26831055 C-2.80751953 6.13238525 -3.68730469 6.99645996 -4.59375 7.88671875 C-5.05986694 8.34859085 -5.52598389 8.81046295 -6.00622559 9.28633118 C-7.4972629 10.76056952 -8.99838872 12.22404088 -10.5 13.6875 C-11.51240054 14.68485528 -12.52412811 15.68289417 -13.53515625 16.68164062 C-16.01567629 19.12907564 -18.50535089 21.56695887 -21 24 C-21.66 23.67 -22.32 23.34 -23 23 C-6.23287671 4.50684932 -6.23287671 4.50684932 0 0 Z " fill="#29D1C8" transform="translate(342,325)"/>
<path d="M0 0 C0.33 0.66 0.66 1.32 1 2 C-0.98520165 6.05970303 -3.71972636 8.93182399 -6.9375 12.0625 C-7.79214844 12.89910156 -8.64679688 13.73570312 -9.52734375 14.59765625 C-10.75130859 15.78681641 -10.75130859 15.78681641 -12 17 C-13.33558368 18.33107918 -14.66975665 19.66358383 -16 21 C-15.41826805 17.34574012 -13.94574229 15.54032413 -11.4375 12.875 C-8.74006645 10.34582141 -8.74006645 10.34582141 -8 7 C-6.25 5.2734375 -6.25 5.2734375 -4 3.375 C-3.2575 2.74335938 -2.515 2.11171875 -1.75 1.4609375 C-1.1725 0.97882813 -0.595 0.49671875 0 0 Z " fill="#1F6663" transform="translate(303,351)"/>
<path d="M0 0 C0.33 0.99 0.66 1.98 1 3 C-3.29 7.29 -7.58 11.58 -12 16 C-12.99 15.67 -13.98 15.34 -15 15 C-10.39863498 9.46398272 -5.53601728 4.60136502 0 0 Z " fill="#28D2CB" transform="translate(278,443)"/>
<path d="M0 0 C0 3 0 3 -2.265625 5.62890625 C-3.25265433 6.61460535 -4.24782646 7.59220221 -5.25 8.5625 C-5.74113281 9.05685547 -6.23226562 9.55121094 -6.73828125 10.06054688 C-9.30489918 12.58952107 -11.63767809 14.64706571 -15 16 C-13.49663014 12.17324037 -11.16477592 10.51559112 -8 8 C-7.67 7.01 -7.34 6.02 -7 5 C-5.37109375 3.61328125 -5.37109375 3.61328125 -3.4375 2.3125 C-2.79683594 1.87550781 -2.15617188 1.43851563 -1.49609375 0.98828125 C-1.00238281 0.66214844 -0.50867188 0.33601562 0 0 Z " fill="#217170" transform="translate(761,548)"/>
<path d="M0 0 C0 3 0 3 -1.56054688 4.90112305 C-2.62885742 5.94586792 -2.62885742 5.94586792 -3.71875 7.01171875 C-4.48574219 7.76904297 -5.25273437 8.52636719 -6.04296875 9.30664062 C-6.85378906 10.09232422 -7.66460937 10.87800781 -8.5 11.6875 C-9.31082031 12.48478516 -10.12164062 13.28207031 -10.95703125 14.10351562 C-12.96482203 16.0758748 -14.9792687 18.04091492 -17 20 C-17.66 19.67 -18.32 19.34 -19 19 C-18.55084229 18.56131592 -18.10168457 18.12263184 -17.63891602 17.6706543 C-15.60822431 15.68151799 -13.5853172 13.68464228 -11.5625 11.6875 C-10.85544922 10.99720703 -10.14839844 10.30691406 -9.41992188 9.59570312 C-8.40961914 8.59506836 -8.40961914 8.59506836 -7.37890625 7.57421875 C-6.44413452 6.65515747 -6.44413452 6.65515747 -5.49047852 5.7175293 C-3.77441733 3.96150438 -3.77441733 3.96150438 -3 1 C-2.01 0.67 -1.02 0.34 0 0 Z " fill="#29D8D0" transform="translate(251,471)"/>
<path d="M0 0 C0.66 0.66 1.32 1.32 2 2 C1.01 2 0.02 2 -1 2 C-0.67 1.34 -0.34 0.68 0 0 Z M-3 1 C-2.34 1.66 -1.68 2.32 -1 3 C-3.97 5.97 -6.94 8.94 -10 12 C-10.33 11.34 -10.66 10.68 -11 10 C-9.85459775 8.68712379 -8.70866567 7.37470979 -7.5625 6.0625 C-6.92441406 5.33160156 -6.28632813 4.60070312 -5.62890625 3.84765625 C-4.77458541 2.87860647 -3.91348825 1.91348825 -3 1 Z " fill="#1F6E6B" transform="translate(276,432)"/>
<path d="M0 0 C0.66 0.33 1.32 0.66 2 1 C-0.64 4.3 -3.28 7.6 -6 11 C-7.32 10.67 -8.64 10.34 -10 10 C-6.66666667 6.66666667 -3.33333333 3.33333333 0 0 Z " fill="#206C6A" transform="translate(671,724)"/>
<path d="M0 0 C1.98 0.99 3.96 1.98 6 3 C5.01 4.485 5.01 4.485 4 6 C0.375 6.1875 0.375 6.1875 -3 6 C-3 5.34 -3 4.68 -3 4 C-2.34 4 -1.68 4 -1 4 C-0.67 2.68 -0.34 1.36 0 0 Z " fill="#23716F" transform="translate(520,325)"/>
<path d="M0 0 C0.66 0.33 1.32 0.66 2 1 C0.45036847 2.65795529 -1.11524769 4.30098044 -2.6875 5.9375 C-3.55761719 6.85402344 -4.42773438 7.77054688 -5.32421875 8.71484375 C-8.05441092 11.04646772 -9.48192553 11.70207297 -13 12 C-13 11.34 -13 10.68 -13 10 C-11.96875 9.46375 -10.9375 8.9275 -9.875 8.375 C-5.89930848 6.12399747 -3.10478867 3.33196833 0 0 Z " fill="#28C5BF" transform="translate(640,666)"/>
<path d="M0 0 C0.66 0 1.32 0 2 0 C1.67 1.32 1.34 2.64 1 4 C0.01 3.67 -0.98 3.34 -2 3 C-1.34 2.01 -0.68 1.02 0 0 Z M-4.75 4.3125 C-3.88375 4.6528125 -3.88375 4.6528125 -3 5 C-4.98 6.32 -6.96 7.64 -9 9 C-9.66 8.34 -10.32 7.68 -11 7 C-7.55384615 3.92307692 -7.55384615 3.92307692 -4.75 4.3125 Z " fill="#216B6B" transform="translate(443,259)"/>
<path d="M0 0 C0.33 0.66 0.66 1.32 1 2 C-1.80804268 4.96404505 -4.18315774 7.44499019 -8 9 C-6.4169423 4.7257442 -3.49431596 2.73468206 0 0 Z " fill="#236463" transform="translate(672,610)"/>
<path d="M0 0 C0.33 0.99 0.66 1.98 1 3 C-1.31 5.31 -3.62 7.62 -6 10 C-6.66 9.67 -7.32 9.34 -8 9 C-7.04663979 7.68388323 -6.08714226 6.37221039 -5.125 5.0625 C-4.59132813 4.33160156 -4.05765625 3.60070312 -3.5078125 2.84765625 C-2 1 -2 1 0 0 Z " fill="#27CEC7" transform="translate(262,459)"/>
<path d="M0 0 C0 0.33 0 0.66 0 1 C-1.670625 1.433125 -1.670625 1.433125 -3.375 1.875 C-7.00291092 2.69241329 -7.00291092 2.69241329 -9 5 C-9.99 5 -10.98 5 -12 5 C-12 4.34 -12 3.68 -12 3 C-11.34 3 -10.68 3 -10 3 C-10 2.34 -10 1.68 -10 1 C-6.78548731 -0.60725635 -3.56387464 -0.05748185 0 0 Z " fill="#27CEC4" transform="translate(672,482)"/>
<path d="M0 0 C0.66 0.66 1.32 1.32 2 2 C-1.37097383 3.49821059 -3.20442119 4 -7 4 C-7 3.34 -7 2.68 -7 2 C-4.69 1.34 -2.38 0.68 0 0 Z " fill="#214649" transform="translate(780,453)"/>
<path d="M0 0 C0.99 0.33 1.98 0.66 3 1 C0.42215154 3.64752004 -1.91648098 5.94432065 -5 8 C-3.62845496 5.04590299 -2.01136276 2.55991624 0 0 Z " fill="#214B4D" transform="translate(817,488)"/>
<path d="M0 0 C0.33 0.66 0.66 1.32 1 2 C-0.65 3.65 -2.3 5.3 -4 7 C-4 4 -4 4 -2 1.8125 C-1.34 1.214375 -0.68 0.61625 0 0 Z " fill="#22494B" transform="translate(755,635)"/>
<path d="M0 0 C0.66 0.33 1.32 0.66 2 1 C0.35 2.65 -1.3 4.3 -3 6 C-3.66 5.34 -4.32 4.68 -5 4 C-3.35 2.68 -1.7 1.36 0 0 Z " fill="#1F6764" transform="translate(396,276)"/>
</svg>
